<?xml version="1.0" encoding="utf-8" ?><svg xmlns="http://www.w3.org/2000/svg" xmlns:xlink="http://www.w3.org/1999/xlink" width="140" height="128" viewBox="0 0 140 128"><path fill="#00FEFD" fill-opacity="0.98823529" d="M68.3775 6.99644C74.3794 14.5233 76.7756 19.1039 79.0113 28.8168C87.2403 27.0503 98.4008 27.7922 106.332 30.5272C102.416 32.0314 97.9067 33.5361 94.3076 35.6108C73.8371 47.4108 67.8273 70.1224 75.9944 91.3575L76.6578 93.0569C77.9159 92.3865 79.8516 91.3985 80.7825 90.3386C82.0971 89.7917 84.5925 87.0715 85.4195 85.7734L86.0265 85.8352C86.1443 87.6057 81.126 94.8474 79.7295 96.4399C73.4587 103.649 64.5699 108.058 55.0356 108.687C50.0591 109.001 46.0128 108.491 41.2683 107.14C22.5098 93.2877 19.0988 66.4836 32.262 47.5316C34.4811 44.3366 38.8889 39.411 42.3098 37.5394C50.5033 43.2197 52.3523 45.5721 57.7506 53.6605C49.6006 59.6542 45.0559 67.1366 47.1581 77.7131C48.6198 85.0668 53.8801 89.2264 59.8417 93.1343C63.967 82.8624 65.7369 74.5456 63.0956 63.5468C60.2061 51.2442 52.1192 40.8014 40.9311 34.9253C38.7157 33.789 36.459 32.8195 34.0969 32.0435C33.0383 31.6957 31.9691 31.3736 31.013 30.7869L30.9584 30.4199L31.623 29.9929C42.2329 28.2583 46.1877 26.5562 57.6002 28.7414C59.5476 20.5641 62.3045 13.0942 68.3775 6.99644Z"/><path d="M31.623 29.9929C34.4512 28.1436 37.8145 28.5825 40.7578 27.978C46.6686 26.7641 51.0957 27.2833 56.9416 27.8043C57.4769 27.8521 58.2196 23.8895 58.4368 23.274C60.3277 17.588 63.7081 10.2053 68.4816 6.36758C75.5201 13.0123 77.0645 19.0924 79.5933 27.621C81.6285 27.7317 83.723 27.3065 85.4375 27.1781C89.1844 26.8976 104.207 27.8163 106.34 30.5461C106.308 30.9013 106.317 31.3542 105.942 31.5313C102.01 33.3888 98.708 33.6131 95.2566 36.6858C105.719 45.3224 111.669 54.3511 112.829 67.927C113.739 78.5744 111.652 91.3228 104.51 99.636C95.4711 110.157 86.3974 115.981 72.6037 117.279C65.1411 117.979 57.6234 116.766 50.7594 113.755C47.5881 112.388 45.6698 111.323 43.4179 108.713C43.0464 108.283 41.7826 107.557 41.2683 107.14C46.0128 108.491 50.0591 109.001 55.0356 108.687C64.5699 108.058 73.4587 103.649 79.7295 96.4399C81.126 94.8474 86.1443 87.6057 86.0265 85.8352L85.4195 85.7734C85.7899 85.4871 87.2051 84.9168 87.2401 84.8403C91.832 74.7724 89.6041 60.3771 79.0786 54.77C78.5033 54.4635 78.1708 54.3386 77.7388 54.0838C72.5218 61.8798 72.1804 74.0227 73.8079 82.9982C74.3689 86.0922 75.6673 89.5069 76.8002 92.4481L80.7825 90.3386C79.8516 91.3985 77.9159 92.3865 76.6578 93.0569L75.9944 91.3575C67.8273 70.1224 73.8371 47.4108 94.3076 35.6108C97.9067 33.5361 102.416 32.0314 106.332 30.5272C98.4008 27.7922 87.2403 27.0503 79.0113 28.8168C76.7756 19.1039 74.3794 14.5233 68.3775 6.99644C62.3045 13.0942 59.5476 20.5641 57.6002 28.7414C46.1877 26.5562 42.2329 28.2583 31.623 29.9929ZM78.9727 53.7852C84.506 57.7326 88.7947 62.3302 89.6493 69.2071C92.0863 88.8175 78.1487 107.205 58.5743 110.149C52.3975 111.078 50.4492 110.426 44.6688 109.877C47.5854 111.902 50.6163 113.196 53.9707 114.325C58.8088 115.733 62.3011 116.487 67.3942 116.679C86.8053 117.41 105.028 104.15 110.446 85.3358C113.706 73.9491 112.338 61.7354 106.638 51.3528C104.8 48.03 97.9069 38.9194 94.6184 37.9375L94.3011 37.976C85.6459 43.4554 84.6752 46.1837 78.9727 53.7852Z"/><path fill="#00FEFD" fill-opacity="0.98823529" d="M94.3011 37.976L94.6184 37.9375C97.9069 38.9194 104.8 48.03 106.638 51.3528C112.338 61.7354 113.706 73.9491 110.446 85.3358C105.028 104.15 86.8053 117.41 67.3942 116.679C62.3011 116.487 58.8088 115.733 53.9707 114.325C50.6163 113.196 47.5854 111.902 44.6688 109.877C50.4492 110.426 52.3975 111.078 58.5743 110.149C78.1487 107.205 92.0863 88.8175 89.6493 69.2071C88.7947 62.3302 84.506 57.7326 78.9727 53.7852C84.6752 46.1837 85.6459 43.4554 94.3011 37.976Z"/></svg>